<svg width="600" height="465" viewBox="0 0 600 465" fill="none" xmlns="http://www.w3.org/2000/svg">
<g id="Priority Chart">
<path id="Mid 2" d="M85 60H274V206H85V60Z" fill="#9FA8FF"/>
<path id="High 1" d="M274 60.0001H459V206H274V60.0001Z" fill="#263BFF"/>
<path id="Low 4" d="M85 206H274V352H85V206Z" fill="#FAFAFF"/>
<path id="Mid 3" d="M274 206H459V352H274V206Z" fill="#ECEEFF"/>
<path id="Arrow 1" d="M274 0L265.34 15H282.66L274 0ZM275.5 398L275.5 13.5H272.5L272.5 398H275.5Z" fill="#263BFF"/>
<path id="Arrow 2" d="M560 206L545 197.34V214.66L560 206ZM0 207.5H546.5V204.5H0V207.5Z" fill="#263BFF"/>
<path id="Arrow 4 W" d="M85 206L459 206" stroke="white" stroke-width="4"/>
<path id="Arrow 3 W" d="M274 352L274 60.0001" stroke="white" stroke-width="4"/>
<g id="Priority Bar">
<text id="Low Priority High Priority" fill="black" xml:space="preserve" style="white-space: pre" font-family="Inter" font-size="12" letter-spacing="0em"><tspan x="191.586" y="461.864">Low Priority       High Priority</tspan></text>
<rect id="Priority Bar_2" x="185" y="424" width="174" height="18" fill="url(#paint0_linear_3_20)"/>
</g>
<text id="High value" fill="black" xml:space="preserve" style="white-space: pre" font-family="Inter" font-size="12" font-weight="bold" letter-spacing="0em"><tspan x="287" y="25.8636">High value</tspan></text>
<text id="Low value" fill="black" xml:space="preserve" style="white-space: pre" font-family="Inter" font-size="12" font-weight="bold" letter-spacing="0em"><tspan x="286" y="391.864">Low value</tspan></text>
<text id="Low sell-through" fill="black" xml:space="preserve" style="white-space: pre" font-family="Inter" font-size="12" font-weight="bold" letter-spacing="0em"><tspan x="0" y="229.864">Low &#10;</tspan><tspan x="0" y="244.864">sell-through</tspan></text>
<text id="High sell-through" fill="black" xml:space="preserve" style="white-space: pre" font-family="Inter" font-size="12" font-weight="bold" letter-spacing="0em"><tspan x="484" y="228.864">High &#10;</tspan><tspan x="484" y="243.864">sell-through</tspan></text>
<text id="Top Priority" fill="white" xml:space="preserve" style="white-space: pre" font-family="Inter" font-size="32" font-weight="900" letter-spacing="0em"><tspan x="304" y="127.136">Top </tspan><tspan x="304" y="166.136">Priority</tspan></text>
</g>
<defs>
<linearGradient id="paint0_linear_3_20" x1="392.143" y1="449.875" x2="281.803" y2="445.598" gradientUnits="userSpaceOnUse">
<stop stop-color="#263BFF"/>
<stop offset="1" stop-color="#ECEEFF"/>
</linearGradient>
</defs>
</svg>
